# Created by MKDS Course Modifier
mtllib Cat.mtl
g Cat
usemtl Eye
v 0.3950195 5.77975 3.99562
v 0 5.82425 4.011101
v 0 5.526062 4.435676
v -0.3950195 5.77975 3.99562
v -1.050049 5.621721 3.925051
vn NaN 0 0
vn NaN 0 0
vn NaN 0 0
vn NaN 0 0
vn NaN 0 0
vt 0.2910156 -0.1738281
vt 0.2338867 -0.1713867
vt 0.2338867 -0.2558594
vt 0.1772461 -0.1738281
vt 0.08251953 -0.1791992
f 1/1/1 2/2/2 3/3/3
f 2/2/2 4/4/4 3/3/3
f 3/3/3 4/4/4 5/5/5
v 1.274902 4.934828 4.40909
v 0 5.526062 4.435676
v 0.4279785 4.895832 4.699357
v 0 4.844806 4.794372
vn NaN 0 0
vn NaN 0 0
vn NaN 0 0
vn NaN 0 0
vt 0.418457 -0.3071289
vt 0.2338867 -0.2558594
vt 0.2958984 -0.3496094
vt 0.2338867 -0.3671875
f 6/6/6 7/7/7 8/8/8
f 7/7/7 9/9/9 8/8/8
v 0.3950195 5.77975 3.99562
v 0 5.526062 4.435676
v 1.050049 5.621721 3.925051
v 1.274902 4.934828 4.40909
vn NaN 0 0
vn NaN 0 0
vn NaN 0 0
vn NaN 0 0
vt 0.2910156 -0.1738281
vt 0.2338867 -0.2558594
vt 0.3857422 -0.1791992
vt 0.418457 -0.3071289
f 10/10/10 11/11/11 12/12/12
f 11/11/11 13/13/13 12/12/12
v -1.050049 5.621721 3.925051
v -1.274902 4.934828 4.40909
v 0 5.526062 4.435676
v -0.4279785 4.895832 4.699357
v 0 4.844806 4.794372
vn NaN 0 0
vn NaN 0 0
vn NaN 0 0
vn NaN 0 0
vn NaN 0 0
vt 0.08251953 -0.1791992
vt 0.04980469 -0.3071289
vt 0.2338867 -0.2558594
vt 0.1723633 -0.3496094
vt 0.2338867 -0.3671875
f 14/14/14 15/15/15 16/16/16
f 15/15/15 17/17/17 16/16/16
f 16/16/16 17/17/17 18/18/18
g Cat_1
usemtl Cat
v 0.1525879 4.374686 -2.073517
v 0.6428223 3.85478 -2.291535
v 0 4.109105 -2.333355
v 0 3.456949 -2.294255
v -0.6428223 3.85478 -2.291535
v -0.342041 3.085433 -1.500802
vn NaN 0 0
vn NaN 0 0
vn NaN 0 0
vn NaN 0 0
vn NaN 0 0
vn NaN 0 0
vt 0.6479492 -0.690918
vt 0.6240234 -0.7548828
vt 0.7016602 -0.7397461
vt 0.6972656 -0.824707
vt 0.6240234 -0.7548828
vt 0.581543 -0.8242188
f 19/19/19 20/20/20 21/21/21
f 20/20/20 22/22/22 21/21/21
f 21/21/21 22/22/22 23/23/23
f 22/22/22 24/24/24 23/23/23
v 0.6428223 3.85478 -2.291535
v 0.342041 3.085433 -1.500802
v 0 3.456949 -2.294255
v 0 2.898905 -1.465103
v -0.342041 3.085433 -1.500802
v -0.4191895 3.318537 0.4383035
v -0.8081055 3.648015 -0.920049
v -0.598877 3.692281 0.4382755
v -0.4677734 4.073895 0.4380664
v -0.6525879 3.692522 1.416258
v -0.6057129 4.352483 1.90226
vn NaN 0 0
vn NaN 0 0
vn NaN 0 0
vn NaN 0 0
vn NaN 0 0
vn NaN 0 0
vn NaN 0 0
vn NaN 0 0
vn NaN 0 0
vn NaN 0 0
vn NaN 0 0
vt 0.6240234 -0.7548828
vt 0.581543 -0.8242188
vt 0.6972656 -0.824707
vt 0.5771484 -0.8828125
vt 0.581543 -0.8242188
vt 0.3564453 -0.8208008
vt 0.5141602 -0.7802734
vt 0.3564453 -0.7749023
vt 0.3564453 -0.6982422
vt 0.2431641 -0.7749023
vt 0.1870117 -0.6933594
f 25/25/25 26/26/26 27/27/27
f 26/26/26 28/28/28 27/27/27
f 27/27/27 28/28/28 29/29/29
f 28/28/28 30/30/30 29/29/29
f 29/29/29 30/30/30 31/31/31
f 30/30/30 32/32/32 31/31/31
f 31/31/31 32/32/32 33/33/33
f 32/32/32 34/34/34 33/33/33
f 33/33/33 34/34/34 35/35/35
v 0.8933854 -0.002167005 -2.12087
v 1.026684 -0.002238806 -1.73086
v 0.558668 -0.002077788 -2.120879
v 0.429271 -0.002263023 -1.731069
vn NaN 0 0
vn NaN 0 0
vn NaN 0 0
vn NaN 0 0
vt 0.2504883 -0.8984375
vt 0.2661133 -0.9726563
vt 0.1850586 -0.8984375
vt 0.1694336 -0.9726563
f 36/36/36 37/37/37 38/38/38
f 37/37/37 39/39/39 38/38/38
v 0.6428223 3.85478 -2.291535
v 0.6416016 4.360437 -1.479187
v 1.075964 3.676378 -1.599843
v 0.8081055 3.648015 -0.920049
v 1.009223 2.650805 -1.95124
v 0.7240835 2.404231 -1.354321
v 0.9425573 1.735127 -2.447401
v 0.7243497 1.825283 -2.041997
v 0.7244273 1.493534 -2.144683
v 0.509696 1.735119 -2.447441
v 0.6321861 0.3008767 -2.182881
v 0.7240402 1.922637 -2.856916
v 0.7244673 0.301006 -2.321198
v 0.8274986 0.3009244 -2.182881
v 0.8933854 -0.002167005 -2.12087
vn NaN 0 0
vn NaN 0 0
vn NaN 0 0
vn NaN 0 0
vn NaN 0 0
vn NaN 0 0
vn NaN 0 0
vn NaN 0 0
vn NaN 0 0
vn NaN 0 0
vn NaN 0 0
vn NaN 0 0
vn NaN 0 0
vn NaN 0 0
vn NaN 0 0
vt 0.8613281 -0.6269531
vt 0.8046875 -0.578125
vt 0.8037109 -0.6303711
vt 0.7495117 -0.6230469
vt 0.8061523 -0.7133789
vt 0.7543945 -0.7143555
vt 0.8110352 -0.7924805
vt 0.7597656 -0.7768555
vt 0.7646484 -0.8139648
vt 0.8110352 -0.7924805
vt 0.8100586 -0.8920898
vt 0.855957 -0.7905273
vt 0.8466797 -0.8920898
vt 0.8100586 -0.8920898
vt 0.8012695 -0.9248047
f 40/40/40 41/41/41 42/42/42
f 41/41/41 43/43/43 42/42/42
f 42/42/42 43/43/43 44/44/44
f 43/43/43 45/45/45 44/44/44
f 44/44/44 45/45/45 46/46/46
f 45/45/45 47/47/47 46/46/46
f 46/46/46 47/47/47 48/48/48
f 47/47/47 49/49/49 48/48/48
f 48/48/48 49/49/49 50/50/50
f 49/49/49 51/51/51 50/50/50
f 50/50/50 51/51/51 52/52/52
f 51/51/51 53/53/53 52/52/52
f 52/52/52 53/53/53 54/54/54
v 0.7243497 1.825283 -2.041997
v 0.7240835 2.404231 -1.354321
v 0.509696 1.735119 -2.447441
v 0.411567 2.650798 -1.95128
v 0.7240546 2.814612 -2.4
v 0.6428223 3.85478 -2.291535
v 1.075964 3.676378 -1.599843
vn NaN 0 0
vn NaN 0 0
vn NaN 0 0
vn NaN 0 0
vn NaN 0 0
vn NaN 0 0
vn NaN 0 0
vt 0.7597656 -0.7768555
vt 0.7543945 -0.7143555
vt 0.8110352 -0.7924805
vt 0.8061523 -0.7133789
vt 0.8623047 -0.7143555
vt 0.8613281 -0.6269531
vt 0.8037109 -0.6303711
f 55/55/55 56/56/56 57/57/57
f 56/56/56 58/58/58 57/57/57
f 57/57/57 58/58/58 59/59/59
f 58/58/58 60/60/60 59/59/59
f 59/59/59 60/60/60 61/61/61
v 0.6321861 0.3008767 -2.182881
v 0.7244673 0.301006 -2.321198
v 0.558668 -0.002077788 -2.120879
v 0.8933854 -0.002167005 -2.12087
vn NaN 0 0
vn NaN 0 0
vn NaN 0 0
vn NaN 0 0
vt 0.8100586 -0.8920898
vt 0.8466797 -0.8920898
vt 0.8012695 -0.9248047
vt 0.8012695 -0.9248047
f 62/62/62 63/63/63 64/64/64
f 63/63/63 65/65/65 64/64/64
v 0.7243179 -0.002195389 -1.631121
v 1.026684 -0.002238806 -1.73086
v 1.026804 0.2473342 -1.730945
v 0.8933854 -0.002167005 -2.12087
v 0.8274986 0.3009244 -2.182881
vn NaN 0 0
vn NaN 0 0
vn NaN 0 0
vn NaN 0 0
vn NaN 0 0
vt 0.07421875 -0.9951172
vt 0.1308594 -0.9755859
vt 0.1313477 -0.9453125
vt 0.1123047 -0.8745117
vt 0.1069336 -0.8637695
f 66/66/66 67/67/67 68/68/68
f 67/67/67 69/69/69 68/68/68
f 68/68/68 69/69/69 70/70/70
v 0.6321861 0.3008767 -2.182881
v 0.7244384 0.2472818 -1.630982
v 0.7244751 0.3009858 -2.047733
v 0.8274986 0.3009244 -2.182881
vn NaN 0 0
vn NaN 0 0
vn NaN 0 0
vn NaN 0 0
vt 0.03955078 -0.8637695
vt 0.07421875 -0.9648438
vt 0.07421875 -0.8891602
vt 0.1069336 -0.8637695
f 71/71/71 72/72/72 73/73/73
f 72/72/72 74/74/74 73/73/73
v 0.8274986 0.3009244 -2.182881
v 0.7244384 0.2472818 -1.630982
v 1.026804 0.2473342 -1.730945
v 0.7243179 -0.002195389 -1.631121
vn NaN 0 0
vn NaN 0 0
vn NaN 0 0
vn NaN 0 0
vt 0.1069336 -0.8637695
vt 0.07421875 -0.9648438
vt 0.1313477 -0.9453125
vt 0.07421875 -0.9951172
f 75/75/75 76/76/76 77/77/77
f 76/76/76 78/78/78 77/77/77
v 0.1525879 4.374686 -2.073517
v 0 4.109105 -2.333355
v 0.1462402 4.37751 -3.890559
v 0 4.117933 -3.890559
v 0.1398926 4.377266 -5.822614
v 0 4.136736 -5.822614
v 0.1335449 4.376778 -8.100691
v 0 4.175318 -8.100691
v 0.1271973 4.376045 -9.380018
v 0 4.209994 -9.380018
v 0 4.376289 -9.570245
v -0.1271973 4.376045 -9.380018
v 0 4.532084 -9.380018
v 0 4.565539 -8.100691
v 0.1271973 4.376045 -9.380018
v 0.1335449 4.376778 -8.100691
vn NaN 0 0
vn NaN 0 0
vn NaN 0 0
vn NaN 0 0
vn NaN 0 0
vn NaN 0 0
vn NaN 0 0
vn NaN 0 0
vn NaN 0 0
vn NaN 0 0
vn NaN 0 0
vn NaN 0 0
vn NaN 0 0
vn NaN 0 0
vn NaN 0 0
vn NaN 0 0
vt 0.3588867 -0.9619141
vt 0.3808594 -0.9956055
vt 0.512207 -0.9614258
vt 0.512207 -0.9941406
vt 0.6748047 -0.9614258
vt 0.6748047 -0.9921875
vt 0.8662109 -0.9614258
vt 0.8662109 -0.9868164
vt 0.9741211 -0.9614258
vt 0.9741211 -0.9824219
vt 0.9902344 -0.9614258
vt 0.9741211 -0.9614258
vt 0.9741211 -0.9418945
vt 0.8662109 -0.9375
vt 0.9741211 -0.9614258
vt 0.8662109 -0.9614258
f 79/79/79 80/80/80 81/81/81
f 80/80/80 82/82/82 81/81/81
f 81/81/81 82/82/82 83/83/83
f 82/82/82 84/84/84 83/83/83
f 83/83/83 84/84/84 85/85/85
f 84/84/84 86/86/86 85/85/85
f 85/85/85 86/86/86 87/87/87
f 86/86/86 88/88/88 87/87/87
f 87/87/87 88/88/88 89/89/89
f 88/88/88 90/90/90 89/89/89
f 89/89/89 90/90/90 91/91/91
f 90/90/90 92/92/92 91/91/91
f 91/91/91 92/92/92 93/93/93
f 92/92/92 94/94/94 93/93/93
v 0.1398926 4.377266 -5.822614
v 0.1335449 4.376778 -8.100691
v 0 4.603145 -5.822614
v 0 4.565539 -8.100691
v -0.1335449 4.376778 -8.100691
v -0.1271973 4.376045 -9.380018
v 0 4.175318 -8.100691
v 0 4.209994 -9.380018
vn NaN 0 0
vn NaN 0 0
vn NaN 0 0
vn NaN 0 0
vn NaN 0 0
vn NaN 0 0
vn NaN 0 0
vn NaN 0 0
vt 0.6748047 -0.9614258
vt 0.8662109 -0.9614258
vt 0.6748047 -0.9326172
vt 0.8662109 -0.9375
vt 0.8662109 -0.9614258
vt 0.9741211 -0.9614258
vt 0.8662109 -0.9868164
vt 0.9741211 -0.9824219
f 95/95/95 96/96/96 97/97/97
f 96/96/96 98/98/98 97/97/97
f 97/97/97 98/98/98 99/99/99
f 98/98/98 100/100/100 99/99/99
f 99/99/99 100/100/100 101/101/101
f 100/100/100 102/102/102 101/101/101
v 0.1462402 4.37751 -3.890559
v 0.1398926 4.377266 -5.822614
v 0 4.620971 -3.890559
v 0 4.603145 -5.822614
v -0.1398926 4.377266 -5.822614
v -0.1335449 4.376778 -8.100691
v 0 4.136736 -5.822614
v 0 4.175318 -8.100691
vn NaN 0 0
vn NaN 0 0
vn NaN 0 0
vn NaN 0 0
vn NaN 0 0
vn NaN 0 0
vn NaN 0 0
vn NaN 0 0
vt 0.512207 -0.9614258
vt 0.6748047 -0.9614258
vt 0.512207 -0.9306641
vt 0.6748047 -0.9326172
vt 0.6748047 -0.9614258
vt 0.8662109 -0.9614258
vt 0.6748047 -0.9921875
vt 0.8662109 -0.9868164
f 103/103/103 104/104/104 105/105/105
f 104/104/104 106/106/106 105/105/105
f 105/105/105 106/106/106 107/107/107
f 106/106/106 108/108/108 107/107/107
f 107/107/107 108/108/108 109/109/109
f 108/108/108 110/110/110 109/109/109
v 0.8081055 3.648015 -0.920049
v 0.4191895 3.318537 0.4383035
v 0.342041 3.085433 -1.500802
v 0 2.898905 -1.465103
vn NaN 0 0
vn NaN 0 0
vn NaN 0 0
vn NaN 0 0
vt 0.5141602 -0.7802734
vt 0.3564453 -0.8208008
vt 0.581543 -0.8242188
vt 0.5771484 -0.8828125
f 111/111/111 112/112/112 113/113/113
f 112/112/112 114/114/114 113/113/113
v 0.4191895 3.318537 0.4383035
v 0 3.135467 0.438336
v 0 2.898905 -1.465103
v -0.4191895 3.318537 0.4383035
vn NaN 0 0
vn NaN 0 0
vn NaN 0 0
vn NaN 0 0
vt 0.3564453 -0.8208008
vt 0.3564453 -0.8828125
vt 0.5771484 -0.8828125
vt 0.3564453 -0.8208008
f 115/115/115 116/116/116 117/117/117
f 116/116/116 118/118/118 117/117/117
v 0.6416016 4.360437 -1.479187
v 0.4677734 4.073895 0.4380664
v 0.8081055 3.648015 -0.920049
v 0.598877 3.692281 0.4382755
v 0.4191895 3.318537 0.4383035
v 0.3654978 3.136024 1.878001
v 0 3.135467 0.438336
v 0 2.965751 1.98894
v -0.3654882 3.136125 1.878002
v 0 3.358564 2.751557
v -0.5556641 4.017045 2.658661
vn NaN 0 0
vn NaN 0 0
vn NaN 0 0
vn NaN 0 0
vn NaN 0 0
vn NaN 0 0
vn NaN 0 0
vn NaN 0 0
vn NaN 0 0
vn NaN 0 0
vn NaN 0 0
vt 0.5791016 -0.6923828
vt 0.3564453 -0.6982422
vt 0.5141602 -0.7802734
vt 0.3564453 -0.7749023
vt 0.3564453 -0.8208008
vt 0.1894531 -0.8183594
vt 0.3564453 -0.8828125
vt 0.1767578 -0.8828125
vt 0.1894531 -0.8183594
vt 0.06884766 -0.8251953
vt 0.09912109 -0.7348633
f 119/119/119 120/120/120 121/121/121
f 120/120/120 122/122/122 121/121/121
f 121/121/121 122/122/122 123/123/123
f 122/122/122 124/124/124 123/123/123
f 123/123/123 124/124/124 125/125/125
f 124/124/124 126/126/126 125/125/125
f 125/125/125 126/126/126 127/127/127
f 126/126/126 128/128/128 127/127/127
f 127/127/127 128/128/128 129/129/129
v 0.509696 1.735119 -2.447441
v 0.7240546 2.814612 -2.4
v 0.7240402 1.922637 -2.856916
v 0.9425573 1.735127 -2.447401
v 0.8274986 0.3009244 -2.182881
v 0.7244273 1.493534 -2.144683
v 0.7244751 0.3009858 -2.047733
v 0.6321861 0.3008767 -2.182881
vn NaN 0 0
vn NaN 0 0
vn NaN 0 0
vn NaN 0 0
vn NaN 0 0
vn NaN 0 0
vn NaN 0 0
vn NaN 0 0
vt 0.8110352 -0.7924805
vt 0.8623047 -0.7143555
vt 0.855957 -0.7905273
vt 0.8110352 -0.7924805
vt 0.8100586 -0.8920898
vt 0.7646484 -0.8139648
vt 0.7744141 -0.8920898
vt 0.8100586 -0.8920898
f 130/130/130 131/131/131 132/132/132
f 131/131/131 133/133/133 132/132/132
f 132/132/132 133/133/133 134/134/134
f 133/133/133 135/135/135 134/134/134
f 134/134/134 135/135/135 136/136/136
f 135/135/135 137/137/137 136/136/136
v 0.3654978 3.136024 1.878001
v 0.598877 3.692281 0.4382755
v 0.6525879 3.692522 1.416258
v 0.4677734 4.073895 0.4380664
v 0.6057129 4.352483 1.90226
vn NaN 0 0
vn NaN 0 0
vn NaN 0 0
vn NaN 0 0
vn NaN 0 0
vt 0.1894531 -0.8183594
vt 0.3564453 -0.7749023
vt 0.2431641 -0.7749023
vt 0.3564453 -0.6982422
vt 0.1870117 -0.6933594
f 138/138/138 139/139/139 140/140/140
f 139/139/139 141/141/141 140/140/140
f 140/140/140 141/141/141 142/142/142
v 0.6057129 4.352483 1.90226
v 0.5556641 4.017045 2.658661
v 0.9738617 3.692508 1.902422
v 0.6534814 3.136047 2.172477
v 0.9651072 3.136128 1.877822
v 0.8592824 1.736642 1.816713
v 0.6533184 3.135804 1.326392
v 0.6536385 1.736574 1.489587
v 0.4508351 1.736629 1.816679
v 0.5451494 0.3025965 1.819593
v 0.6535479 1.494636 2.026343
v 0.6536182 0.3026262 1.965584
v 0.783919 0.3026381 1.819522
vn NaN 0 0
vn NaN 0 0
vn NaN 0 0
vn NaN 0 0
vn NaN 0 0
vn NaN 0 0
vn NaN 0 0
vn NaN 0 0
vn NaN 0 0
vn NaN 0 0
vn NaN 0 0
vn NaN 0 0
vn NaN 0 0
vt 0.9414063 -0.5830078
vt 0.875 -0.6083984
vt 0.9414063 -0.6333008
vt 0.8964844 -0.675293
vt 0.9433594 -0.675293
vt 0.9428711 -0.7822266
vt 0.9912109 -0.675293
vt 0.9829102 -0.7822266
vt 0.9428711 -0.7822266
vt 0.9428711 -0.8916016
vt 0.9091797 -0.8007813
vt 0.9155273 -0.8916016
vt 0.9428711 -0.8916016
f 143/143/143 144/144/144 145/145/145
f 144/144/144 146/146/146 145/145/145
f 145/145/145 146/146/146 147/147/147
f 146/146/146 148/148/148 147/147/147
f 147/147/147 148/148/148 149/149/149
f 148/148/148 150/150/150 149/149/149
f 149/149/149 150/150/150 151/151/151
f 150/150/150 152/152/152 151/151/151
f 151/151/151 152/152/152 153/153/153
f 152/152/152 154/154/154 153/153/153
f 153/153/153 154/154/154 155/155/155
v 0.869758 0.000951027 1.882622
v 0.96886 0.001095745 2.282067
v 0.4564275 0.0007953961 1.882438
v 0.3602167 0.0009283272 2.281957
vn NaN 0 0
vn NaN 0 0
vn NaN 0 0
vn NaN 0 0
vt 0.2504883 -0.8984375
vt 0.2661133 -0.9726563
vt 0.1850586 -0.8984375
vt 0.1694336 -0.9726563
f 156/156/156 157/157/157 158/158/158
f 157/157/157 159/159/159 158/158/158
v 0.4508351 1.736629 1.816679
v 0.3654978 3.136024 1.878001
v 0.6533184 3.135804 1.326392
v 0.6525879 3.692522 1.416258
v 0.9738617 3.692508 1.902422
v 0.6057129 4.352483 1.90226
vn NaN 0 0
vn NaN 0 0
vn NaN 0 0
vn NaN 0 0
vn NaN 0 0
vn NaN 0 0
vt 0.9428711 -0.7822266
vt 0.9433594 -0.675293
vt 0.9912109 -0.675293
vt 0.9951172 -0.6333008
vt 0.9414063 -0.6333008
vt 0.9414063 -0.5830078
f 160/160/160 161/161/161 162/162/162
f 161/161/161 163/163/163 162/162/162
f 162/162/162 163/163/163 164/164/164
f 163/163/163 165/165/165 164/164/164
v 0.5556641 4.017045 2.658661
v 0.3654978 3.136024 1.878001
v 0.6534814 3.136047 2.172477
v 0.4508351 1.736629 1.816679
v 0.6535367 1.826575 2.060434
v 0.6535479 1.494636 2.026343
v 0.8592824 1.736642 1.816713
v 0.783919 0.3026381 1.819522
v 0.6536385 1.736574 1.489587
v 0.6534706 0.3026275 1.658932
v 0.5451494 0.3025965 1.819593
v 0.4564275 0.0007953961 1.882438
vn NaN 0 0
vn NaN 0 0
vn NaN 0 0
vn NaN 0 0
vn NaN 0 0
vn NaN 0 0
vn NaN 0 0
vn NaN 0 0
vn NaN 0 0
vn NaN 0 0
vn NaN 0 0
vn NaN 0 0
vt 0.875 -0.6083984
vt 0.9433594 -0.675293
vt 0.8964844 -0.675293
vt 0.9428711 -0.7822266
vt 0.9052734 -0.7753906
vt 0.9091797 -0.8007813
vt 0.9428711 -0.7822266
vt 0.9428711 -0.8916016
vt 0.9829102 -0.7822266
vt 0.9731445 -0.8916016
vt 0.9428711 -0.8916016
vt 0.9379883 -0.9223633
f 166/166/166 167/167/167 168/168/168
f 167/167/167 169/169/169 168/168/168
f 168/168/168 169/169/169 170/170/170
f 169/169/169 171/171/171 170/170/170
f 170/170/170 171/171/171 172/172/172
f 171/171/171 173/173/173 172/172/172
f 172/172/172 173/173/173 174/174/174
f 173/173/173 175/175/175 174/174/174
f 174/174/174 175/175/175 176/176/176
f 175/175/175 177/177/177 176/176/176
v 0.6536012 0.0009650027 2.392522
v 0.96886 0.001095745 2.282067
v 0.9689472 0.2481037 2.281907
v 0.869758 0.000951027 1.882622
v 0.783919 0.3026381 1.819522
vn NaN 0 0
vn NaN 0 0
vn NaN 0 0
vn NaN 0 0
vn NaN 0 0
vt 0.07421875 -0.9951172
vt 0.1308594 -0.9755859
vt 0.1313477 -0.9453125
vt 0.1123047 -0.8745117
vt 0.1069336 -0.8637695
f 178/178/178 179/179/179 180/180/180
f 179/179/179 181/181/181 180/180/180
f 180/180/180 181/181/181 182/182/182
v 0.783919 0.3026381 1.819522
v 0.6534443 0.248201 2.392449
v 0.9689472 0.2481037 2.281907
v 0.6536012 0.0009650027 2.392522
vn NaN 0 0
vn NaN 0 0
vn NaN 0 0
vn NaN 0 0
vt 0.1069336 -0.8637695
vt 0.07421875 -0.9648438
vt 0.1313477 -0.9453125
vt 0.07421875 -0.9951172
f 183/183/183 184/184/184 185/185/185
f 184/184/184 186/186/186 185/185/185
v 0.5451494 0.3025965 1.819593
v 0.6534443 0.248201 2.392449
v 0.6536182 0.3026262 1.965584
v 0.783919 0.3026381 1.819522
vn NaN 0 0
vn NaN 0 0
vn NaN 0 0
vn NaN 0 0
vt 0.03955078 -0.8637695
vt 0.07421875 -0.9648438
vt 0.07421875 -0.8891602
vt 0.1069336 -0.8637695
f 187/187/187 188/188/188 189/189/189
f 188/188/188 190/190/190 189/189/189
v 0.4564275 0.0007953961 1.882438
v 0.6534706 0.3026275 1.658932
v 0.869758 0.000951027 1.882622
v 0.783919 0.3026381 1.819522
vn NaN 0 0
vn NaN 0 0
vn NaN 0 0
vn NaN 0 0
vt 0.9379883 -0.9223633
vt 0.9731445 -0.8916016
vt 0.9379883 -0.9223633
vt 0.9428711 -0.8916016
f 191/191/191 192/192/192 193/193/193
f 192/192/192 194/194/194 193/193/193
v 0 4.510798 2.542658
v 0.3586426 4.295295 2.786113
v 0.6057129 4.352483 1.90226
v 0.5556641 4.017045 2.658661
vn NaN 0 0
vn NaN 0 0
vn NaN 0 0
vn NaN 0 0
vt 0.1123047 -0.6425781
vt 0.06835938 -0.6826172
vt 0.1870117 -0.6933594
vt 0.09912109 -0.7348633
f 195/195/195 196/196/196 197/197/197
f 196/196/196 198/198/198 197/197/197
v 0.3371582 4.196088 4.696792
v 0 4.351223 4.930527
v 0 4.120543 4.793627
v -0.3371582 4.196088 4.696792
vn NaN 0 0
vn NaN 0 0
vn NaN 0 0
vn NaN 0 0
vt 0.2954102 -0.4746094
vt 0.2338867 -0.4311523
vt 0.2338867 -0.4912109
vt 0.1728516 -0.4746094
f 199/199/199 200/200/200 201/201/201
f 200/200/200 202/202/202 201/201/201
v 1.074219 5.411056 3.259925
v 1.351318 4.5724 4.098227
v 1.02417 4.99227 3.410263
v 0.8823242 4.485127 4.012371
v 0 4.523844 3.864298
v 0.2463379 4.028485 4.185954
v 0 3.960444 4.208348
v 0 3.982527 4.442057
v -0.2463379 4.028485 4.185954
v -0.2976074 4.106285 4.420081
v -0.8823242 4.485127 4.012371
v -0.6608887 4.450253 4.394654
v -1.351318 4.572317 4.098456
vn NaN 0 0
vn NaN 0 0
vn NaN 0 0
vn NaN 0 0
vn NaN 0 0
vn NaN 0 0
vn NaN 0 0
vn NaN 0 0
vn NaN 0 0
vn NaN 0 0
vn NaN 0 0
vn NaN 0 0
vn NaN 0 0
vt 0.8676758 -0.3154297
vt 0.8344727 -0.4130859
vt 0.8735352 -0.3896484
vt 0.8901367 -0.4614258
vt 0.9951172 -0.4433594
vt 0.9658203 -0.5126953
vt 0.9951172 -0.5180664
vt 0.9951172 -0.5732422
vt 0.9658203 -0.5126953
vt 0.9550781 -0.565918
vt 0.8901367 -0.4614258
vt 0.875 -0.5288086
vt 0.8344727 -0.4130859
f 203/203/203 204/204/204 205/205/205
f 204/204/204 206/206/206 205/205/205
f 205/205/205 206/206/206 207/207/207
f 206/206/206 208/208/208 207/207/207
f 207/207/207 208/208/208 209/209/209
f 208/208/208 210/210/210 209/209/209
f 209/209/209 210/210/210 211/211/211
f 210/210/210 212/212/212 211/211/211
f 211/211/211 212/212/212 213/213/213
f 212/212/212 214/214/214 213/213/213
f 213/213/213 214/214/214 215/215/215
v 0 5.599612 3.068831
v 0.8569336 5.793896 3.332207
v 1.074219 5.411056 3.259925
v 1.050049 5.621721 3.925051
v 1.351318 4.5724 4.098227
v 1.274902 4.934828 4.40909
v 0.640625 4.627111 4.689898
v 0.4279785 4.895832 4.699357
v 0.3481445 4.44835 4.838598
v 0 4.844806 4.794372
vn NaN 0 0
vn NaN 0 0
vn NaN 0 0
vn NaN 0 0
vn NaN 0 0
vn NaN 0 0
vn NaN 0 0
vn NaN 0 0
vn NaN 0 0
vn NaN 0 0
vt 0.2338867 -0.004882813
vt 0.3579102 -0.08398438
vt 0.4301758 -0.09570313
vt 0.3857422 -0.1791992
vt 0.4575195 -0.3139648
vt 0.418457 -0.3071289
vt 0.3266602 -0.3735352
vt 0.2958984 -0.3496094
vt 0.284668 -0.4194336
vt 0.2338867 -0.3671875
f 216/216/216 217/217/217 218/218/218
f 217/217/217 219/219/219 218/218/218
f 218/218/218 219/219/219 220/220/220
f 219/219/219 221/221/221 220/220/220
f 220/220/220 221/221/221 222/222/222
f 221/221/221 223/223/223 222/222/222
f 222/222/222 223/223/223 224/224/224
f 223/223/223 225/225/225 224/224/224
v 0.3950195 5.77975 3.99562
v 0.6977539 6.760291 3.597449
v 0.2646484 5.946573 3.624722
v 0.848877 6.166367 3.316452
v 0.8569336 5.793896 3.332207
v 1.050049 5.621721 3.925051
vn NaN 0 0
vn NaN 0 0
vn NaN 0 0
vn NaN 0 0
vn NaN 0 0
vn NaN 0 0
vt 0.4213867 -0.5791016
vt 0.409668 -0.4765625
vt 0.3608398 -0.5795898
vt 0.4213867 -0.5791016
vt 0.4204102 -0.6264648
vt 0.4628906 -0.5947266
f 226/226/226 227/227/227 228/228/228
f 227/227/227 229/229/229 228/228/228
f 228/228/228 229/229/229 230/230/230
f 229/229/229 231/231/231 230/230/230
v 1.050049 5.621721 3.925051
v 0.9172363 6.162265 3.728996
v 0.3950195 5.77975 3.99562
v 0.6977539 6.760291 3.597449
vn NaN 0 0
vn NaN 0 0
vn NaN 0 0
vn NaN 0 0
vt 0.3388672 -0.6264648
vt 0.3217773 -0.5800781
vt 0.2529297 -0.6157227
vt 0.2929688 -0.5146484
f 232/232/232 233/233/233 234/234/234
f 233/233/233 235/235/235 234/234/234
v 0.3950195 5.77975 3.99562
v 0.2646484 5.946573 3.624722
v 0 5.82425 4.011101
v 0 5.982998 3.454157
v -0.2646484 5.946573 3.624722
v -0.8569336 5.793896 3.332207
vn NaN 0 0
vn NaN 0 0
vn NaN 0 0
vn NaN 0 0
vn NaN 0 0
vn NaN 0 0
vt 0.2910156 -0.1738281
vt 0.2724609 -0.1088867
vt 0.2338867 -0.1713867
vt 0.2338867 -0.08251953
vt 0.1958008 -0.1088867
vt 0.1103516 -0.08398438
f 236/236/236 237/237/237 238/238/238
f 237/237/237 239/239/239 238/238/238
f 238/238/238 239/239/239 240/240/240
f 239/239/239 241/241/241 240/240/240
v 0.2646484 5.946573 3.624722
v 0.8569336 5.793896 3.332207
v 0 5.982998 3.454157
v 0 5.599612 3.068831
v -0.8569336 5.793896 3.332207
v -1.074219 5.411056 3.259925
v -1.050049 5.621721 3.925051
v -1.351318 4.572317 4.098456
v -1.274902 4.934828 4.40909
v -0.640625 4.627111 4.689898
v -0.4279785 4.895832 4.699357
v -0.3481445 4.448267 4.838828
v 0 4.844806 4.794372
v 0 4.351223 4.930527
v 0.3481445 4.44835 4.838598
v 0.3371582 4.196088 4.696792
v 0.6608887 4.450253 4.394654
vn NaN 0 0
vn NaN 0 0
vn NaN 0 0
vn NaN 0 0
vn NaN 0 0
vn NaN 0 0
vn NaN 0 0
vn NaN 0 0
vn NaN 0 0
vn NaN 0 0
vn NaN 0 0
vn NaN 0 0
vn NaN 0 0
vn NaN 0 0
vn NaN 0 0
vn NaN 0 0
vn NaN 0 0
vt 0.2724609 -0.1088867
vt 0.3579102 -0.08398438
vt 0.2338867 -0.08251953
vt 0.2338867 -0.004882813
vt 0.1103516 -0.08398438
vt 0.03808594 -0.09570313
vt 0.08251953 -0.1791992
vt 0.01074219 -0.3139648
vt 0.04980469 -0.3071289
vt 0.1416016 -0.3735352
vt 0.1723633 -0.3496094
vt 0.1835938 -0.4194336
vt 0.2338867 -0.3671875
vt 0.2338867 -0.4311523
vt 0.284668 -0.4194336
vt 0.2954102 -0.4746094
vt 0.3837891 -0.4282227
f 242/242/242 243/243/243 244/244/244
f 243/243/243 245/245/245 244/244/244
f 244/244/244 245/245/245 246/246/246
f 245/245/245 247/247/247 246/246/246
f 246/246/246 247/247/247 248/248/248
f 247/247/247 249/249/249 248/248/248
f 248/248/248 249/249/249 250/250/250
f 249/249/249 251/251/251 250/250/250
f 250/250/250 251/251/251 252/252/252
f 251/251/251 253/253/253 252/252/252
f 252/252/252 253/253/253 254/254/254
f 253/253/253 255/255/255 254/254/254
f 254/254/254 255/255/255 256/256/256
f 255/255/255 257/257/257 256/256/256
f 256/256/256 257/257/257 258/258/258
v 0.6977539 6.760291 3.597449
v 0.9172363 6.162265 3.728996
v 0.848877 6.166367 3.316452
v 1.050049 5.621721 3.925051
vn NaN 0 0
vn NaN 0 0
vn NaN 0 0
vn NaN 0 0
vt 0.409668 -0.4765625
vt 0.4477539 -0.5424805
vt 0.4213867 -0.5791016
vt 0.4628906 -0.5947266
f 259/259/259 260/260/260 261/261/261
f 260/260/260 262/262/262 261/261/261
v 0.3481445 4.44835 4.838598
v 0.6608887 4.450253 4.394654
v 0.640625 4.627111 4.689898
v 1.351318 4.5724 4.098227
vn NaN 0 0
vn NaN 0 0
vn NaN 0 0
vn NaN 0 0
vt 0.284668 -0.4194336
vt 0.3837891 -0.4282227
vt 0.3266602 -0.3735352
vt 0.4575195 -0.3139648
f 263/263/263 264/264/264 265/265/265
f 264/264/264 266/266/266 265/265/265
v 1.351318 4.5724 4.098227
v 0.6608887 4.450253 4.394654
v 0.8823242 4.485127 4.012371
v 0.2976074 4.106285 4.420081
v 0.2463379 4.028485 4.185954
v 0 3.982527 4.442057
vn NaN 0 0
vn NaN 0 0
vn NaN 0 0
vn NaN 0 0
vn NaN 0 0
vn NaN 0 0
vt 0.8344727 -0.4130859
vt 0.875 -0.5288086
vt 0.8901367 -0.4614258
vt 0.9550781 -0.565918
vt 0.9658203 -0.5126953
vt 0.9951172 -0.5732422
f 267/267/267 268/268/268 269/269/269
f 268/268/268 270/270/270 269/269/269
f 269/269/269 270/270/270 271/271/271
f 270/270/270 272/272/272 271/271/271
v 0 4.689123 3.604773
v 0.2324219 4.914927 3.41903
v 1.02417 4.99227 3.410263
v 0 5.105904 3.239961
v 1.074219 5.411056 3.259925
v 0 5.599612 3.068831
vn NaN 0 0
vn NaN 0 0
vn NaN 0 0
vn NaN 0 0
vn NaN 0 0
vn NaN 0 0
vt 0.9951172 -0.4042969
vt 0.9672852 -0.3681641
vt 0.8735352 -0.3896484
vt 0.9951172 -0.3359375
vt 0.8676758 -0.3154297
vt 0.9951172 -0.2817383
f 273/273/273 274/274/274 275/275/275
f 274/274/274 276/276/276 275/275/275
f 275/275/275 276/276/276 277/277/277
f 276/276/276 278/278/278 277/277/277
v 0.3371582 4.196088 4.696792
v 0 4.120543 4.793627
v 0 5.130775 3.994707
v -0.3371582 4.196088 4.696792
v -0.730957 5.009687 3.850258
v -0.6608887 4.450253 4.394654
v -0.2976074 4.106285 4.420081
vn NaN 0 0
vn NaN 0 0
vn NaN 0 0
vn NaN 0 0
vn NaN 0 0
vn NaN 0 0
vn NaN 0 0
vt 0.9394531 -0.2226563
vt 0.9951172 -0.2368164
vt 0.9951172 -0.09619141
vt 0.9394531 -0.2226563
vt 0.8828125 -0.1069336
vt 0.8891602 -0.1850586
vt 0.9394531 -0.2226563
f 279/279/279 280/280/280 281/281/281
f 280/280/280 282/282/282 281/281/281
f 281/281/281 282/282/282 283/283/283
f 282/282/282 284/284/284 283/283/283
f 283/283/283 284/284/284 285/285/285
v 0 3.982527 4.442057
v 0.2976074 4.106285 4.420081
v 0 4.989932 3.727718
v 0.730957 5.009687 3.850258
v 0 5.130775 3.994707
v 0.3371582 4.196088 4.696792
vn NaN 0 0
vn NaN 0 0
vn NaN 0 0
vn NaN 0 0
vn NaN 0 0
vn NaN 0 0
vt 0.9951172 -0.2368164
vt 0.9394531 -0.2226563
vt 0.9951172 -0.09619141
vt 0.8828125 -0.1069336
vt 0.9951172 -0.09619141
vt 0.9394531 -0.2226563
f 286/286/286 287/287/287 288/288/288
f 287/287/287 289/289/289 288/288/288
f 288/288/288 289/289/289 290/290/290
f 289/289/289 291/291/291 290/290/290
v 0.3371582 4.196088 4.696792
v 0.730957 5.009687 3.850258
v 0.6608887 4.450253 4.394654
v 0.2976074 4.106285 4.420081
vn NaN 0 0
vn NaN 0 0
vn NaN 0 0
vn NaN 0 0
vt 0.9394531 -0.2226563
vt 0.8828125 -0.1069336
vt 0.8891602 -0.1850586
vt 0.9394531 -0.2226563
f 292/292/292 293/293/293 294/294/294
f 293/293/293 295/295/295 294/294/294
v 0.2324219 4.914927 3.41903
v 0 4.689123 3.604773
v 0 4.689044 3.441836
v -0.2324219 4.914927 3.41903
v -0.3586426 4.295295 2.786113
v 0 5.105904 3.239961
v 0 4.603438 2.774733
v 0.3586426 4.295295 2.786113
v 0 4.510798 2.542658
vn NaN 0 0
vn NaN 0 0
vn NaN 0 0
vn NaN 0 0
vn NaN 0 0
vn NaN 0 0
vn NaN 0 0
vn NaN 0 0
vn NaN 0 0
vt 0.6884766 -0.5522461
vt 0.7060547 -0.4995117
vt 0.6640625 -0.5053711
vt 0.6884766 -0.5522461
vt 0.5146484 -0.5522461
vt 0.6772461 -0.6044922
vt 0.5527344 -0.6044922
vt 0.5146484 -0.5522461
vt 0.5258789 -0.6157227
f 296/296/296 297/297/297 298/298/298
f 297/297/297 299/299/299 298/298/298
f 298/298/298 299/299/299 300/300/300
f 299/299/299 301/301/301 300/300/300
f 300/300/300 301/301/301 302/302/302
f 301/301/301 303/303/303 302/302/302
f 302/302/302 303/303/303 304/304/304
v 0 5.105904 3.239961
v 0.2324219 4.914927 3.41903
v 0.3586426 4.295295 2.786113
v 0 4.689044 3.441836
v 0 4.096371 2.880419
v -0.3586426 4.295295 2.786113
vn NaN 0 0
vn NaN 0 0
vn NaN 0 0
vn NaN 0 0
vn NaN 0 0
vn NaN 0 0
vt 0.6772461 -0.6044922
vt 0.6884766 -0.5522461
vt 0.5146484 -0.5522461
vt 0.6640625 -0.5053711
vt 0.4946289 -0.5053711
vt 0.5146484 -0.5522461
f 305/305/305 306/306/306 307/307/307
f 306/306/306 308/308/308 307/307/307
f 307/307/307 308/308/308 309/309/309
f 308/308/308 310/310/310 309/309/309
v 0.9425573 1.735127 -2.447401
v 0.7240546 2.814612 -2.4
v 1.009223 2.650805 -1.95124
v 1.075964 3.676378 -1.599843
vn NaN 0 0
vn NaN 0 0
vn NaN 0 0
vn NaN 0 0
vt 0.8110352 -0.7924805
vt 0.8623047 -0.7143555
vt 0.8061523 -0.7133789
vt 0.8037109 -0.6303711
f 311/311/311 312/312/312 313/313/313
f 312/312/312 314/314/314 313/313/313
v 0.6428223 3.85478 -2.291535
v 0.1525879 4.374686 -2.073517
v 0.6416016 4.360437 -1.479187
v 0 4.680686 -1.371549
v 0.4677734 4.073895 0.4380664
v 0 4.259661 0.4380627
v 0.6057129 4.352483 1.90226
v 0 4.497788 1.90218
v 0 4.510798 2.542658
v -0.6057129 4.352483 1.90226
v -0.3586426 4.295295 2.786113
v -0.5556641 4.017045 2.658661
v 0 4.096371 2.880419
v 0 3.358564 2.751557
v 0.5556641 4.017045 2.658661
v 0.3654978 3.136024 1.878001
vn NaN 0 0
vn NaN 0 0
vn NaN 0 0
vn NaN 0 0
vn NaN 0 0
vn NaN 0 0
vn NaN 0 0
vn NaN 0 0
vn NaN 0 0
vn NaN 0 0
vn NaN 0 0
vn NaN 0 0
vn NaN 0 0
vn NaN 0 0
vn NaN 0 0
vn NaN 0 0
vt 0.6240234 -0.7548828
vt 0.6479492 -0.690918
vt 0.5791016 -0.6923828
vt 0.5288086 -0.6425781
vt 0.3564453 -0.6982422
vt 0.3564453 -0.6425781
vt 0.1870117 -0.6933594
vt 0.1870117 -0.6425781
vt 0.1123047 -0.6425781
vt 0.1870117 -0.6933594
vt 0.06835938 -0.6826172
vt 0.09912109 -0.7348633
vt 0.04248047 -0.7490234
vt 0.06884766 -0.8251953
vt 0.09912109 -0.7348633
vt 0.1894531 -0.8183594
f 315/315/315 316/316/316 317/317/317
f 316/316/316 318/318/318 317/317/317
f 317/317/317 318/318/318 319/319/319
f 318/318/318 320/320/320 319/319/319
f 319/319/319 320/320/320 321/321/321
f 320/320/320 322/322/322 321/321/321
f 321/321/321 322/322/322 323/323/323
f 322/322/322 324/324/324 323/323/323
f 323/323/323 324/324/324 325/325/325
f 324/324/324 326/326/326 325/325/325
f 325/325/325 326/326/326 327/327/327
f 326/326/326 328/328/328 327/327/327
f 327/327/327 328/328/328 329/329/329
f 328/328/328 330/330/330 329/329/329
v 0.1525879 4.374686 -2.073517
v 0.1462402 4.37751 -3.890559
v 0 4.674471 -2.045919
v 0 4.620971 -3.890559
v -0.1462402 4.37751 -3.890559
v -0.1398926 4.377266 -5.822614
v 0 4.117933 -3.890559
v 0 4.136736 -5.822614
vn NaN 0 0
vn NaN 0 0
vn NaN 0 0
vn NaN 0 0
vn NaN 0 0
vn NaN 0 0
vn NaN 0 0
vn NaN 0 0
vt 0.3588867 -0.9619141
vt 0.512207 -0.9614258
vt 0.3662109 -0.9238281
vt 0.512207 -0.9306641
vt 0.512207 -0.9614258
vt 0.6748047 -0.9614258
vt 0.512207 -0.9941406
vt 0.6748047 -0.9921875
f 331/331/331 332/332/332 333/333/333
f 332/332/332 334/334/334 333/333/333
f 333/333/333 334/334/334 335/335/335
f 334/334/334 336/336/336 335/335/335
f 335/335/335 336/336/336 337/337/337
f 336/336/336 338/338/338 337/337/337
v 0.3005371 4.324991 4.61966
v 0 4.25876 4.714397
v 0.2646484 4.16697 4.453113
v 0 4.087442 4.538658
vn NaN 0 0
vn NaN 0 0
vn NaN 0 0
vn NaN 0 0
vt 0.8789063 -0.005371094
vt 0.7939453 -0.005371094
vt 0.8789063 -0.07958984
vt 0.7939453 -0.07958984
f 339/339/339 340/340/340 341/341/341
f 340/340/340 342/342/342 341/341/341
v 0.5976563 4.506088 4.361291
v 0.3005371 4.324991 4.61966
v 0.5976563 4.397677 4.285475
v 0.2646484 4.16697 4.453113
vn NaN 0 0
vn NaN 0 0
vn NaN 0 0
vn NaN 0 0
vt 0.9624023 -0.005371094
vt 0.8789063 -0.005371094
vt 0.9624023 -0.07958984
vt 0.8789063 -0.07958984
f 343/343/343 344/344/344 345/345/345
f 344/344/344 346/346/346 345/345/345
v 0.3005371 4.263554 4.476174
v 0 4.14193 4.534315
v 0.3005371 4.199183 4.303112
v 0 4.071829 4.345903
vn NaN 0 0
vn NaN 0 0
vn NaN 0 0
vn NaN 0 0
vt 0.8789063 -0.08007813
vt 0.7939453 -0.08007813
vt 0.8789063 -0.005859375
vt 0.7939453 -0.005859375
f 347/347/347 348/348/348 349/349/349
f 348/348/348 350/350/350 349/349/349
v 0.5976563 4.503712 4.353519
v 0.3005371 4.263554 4.476174
v 0.5976563 4.470906 4.267396
v 0.3005371 4.199183 4.303112
vn NaN 0 0
vn NaN 0 0
vn NaN 0 0
vn NaN 0 0
vt 0.9624023 -0.08007813
vt 0.8789063 -0.08007813
vt 0.9624023 -0.005859375
vt 0.8789063 -0.005859375
f 351/351/351 352/352/352 353/353/353
f 352/352/352 354/354/354 353/353/353
v 0.8081055 3.648015 -0.920049
v 0.342041 3.085433 -1.500802
v 0.7240835 2.404231 -1.354321
v 0.411567 2.650798 -1.95128
vn NaN 0 0
vn NaN 0 0
vn NaN 0 0
vn NaN 0 0
vt 0.7495117 -0.6230469
vt 0.8066406 -0.6728516
vt 0.7543945 -0.7143555
vt 0.8061523 -0.7133789
f 355/355/355 356/356/356 357/357/357
f 356/356/356 358/358/358 357/357/357
v 0.558668 -0.002077788 -2.120879
v 0.429271 -0.002263023 -1.731069
v 0.6321861 0.3008767 -2.182881
v 0.4291473 0.2472141 -1.73093
v 0.7244384 0.2472818 -1.630982
v 0.429271 -0.002263023 -1.731069
v 0.7243179 -0.002195389 -1.631121
vn NaN 0 0
vn NaN 0 0
vn NaN 0 0
vn NaN 0 0
vn NaN 0 0
vn NaN 0 0
vn NaN 0 0
vt 0.03417969 -0.8745117
vt 0.02001953 -0.9755859
vt 0.03955078 -0.8637695
vt 0.015625 -0.9453125
vt 0.07421875 -0.9648438
vt 0.02001953 -0.9755859
vt 0.07421875 -0.9951172
f 359/359/359 360/360/360 361/361/361
f 360/360/360 362/362/362 361/361/361
f 361/361/361 362/362/362 363/363/363
f 362/362/362 364/364/364 363/363/363
f 363/363/363 364/364/364 365/365/365
v 0.4564275 0.0007953961 1.882438
v 0.3602167 0.0009283272 2.281957
v 0.5451494 0.3025965 1.819593
v 0.3600598 0.2481643 2.281884
v 0.6534443 0.248201 2.392449
v 0.3602167 0.0009283272 2.281957
v 0.6536012 0.0009650027 2.392522
vn NaN 0 0
vn NaN 0 0
vn NaN 0 0
vn NaN 0 0
vn NaN 0 0
vn NaN 0 0
vn NaN 0 0
vt 0.03417969 -0.8745117
vt 0.02001953 -0.9755859
vt 0.03955078 -0.8637695
vt 0.015625 -0.9453125
vt 0.07421875 -0.9648438
vt 0.02001953 -0.9755859
vt 0.07421875 -0.9951172
f 366/366/366 367/367/367 368/368/368
f 367/367/367 369/369/369 368/368/368
f 368/368/368 369/369/369 370/370/370
f 369/369/369 371/371/371 370/370/370
f 370/370/370 371/371/371 372/372/372
v 1.02417 4.99227 3.410263
v 0 4.523844 3.864298
v 0 4.689123 3.604773
v -1.02417 4.99227 3.410263
v -0.2324219 4.914927 3.41903
v 0 5.105904 3.239961
vn NaN 0 0
vn NaN 0 0
vn NaN 0 0
vn NaN 0 0
vn NaN 0 0
vn NaN 0 0
vt 0.8735352 -0.3896484
vt 0.9951172 -0.4433594
vt 0.9951172 -0.4042969
vt 0.8735352 -0.3896484
vt 0.9672852 -0.3681641
vt 0.9951172 -0.3359375
f 373/373/373 374/374/374 375/375/375
f 374/374/374 376/376/376 375/375/375
f 375/375/375 376/376/376 377/377/377
f 376/376/376 378/378/378 377/377/377
v 2.148193 5.078684 4.580402
v 0.2749023 4.933912 4.698781
v 2.186523 4.407485 4.697572
v 0.2980957 4.442357 4.784562
vn NaN 0 0
vn NaN 0 0
vn NaN 0 0
vn NaN 0 0
vt 0.7729492 -0.008789063
vt 0.4882813 -0.02099609
vt 0.7729492 -0.1191406
vt 0.4882813 -0.1098633
f 379/379/379 380/380/380 381/381/381
f 380/380/380 382/382/382 381/381/381
v 0 4.109105 -2.333355
v -0.6428223 3.85478 -2.291535
v -0.1525879 4.374686 -2.073517
v -0.6416016 4.360437 -1.479187
v 0 4.680686 -1.371549
v -0.4677734 4.073895 0.4380664
v 0 4.259661 0.4380627
v -0.6057129 4.352483 1.90226
v 0 4.497788 1.90218
vn NaN 0 0
vn NaN 0 0
vn NaN 0 0
vn NaN 0 0
vn NaN 0 0
vn NaN 0 0
vn NaN 0 0
vn NaN 0 0
vn NaN 0 0
vt 0.7016602 -0.7397461
vt 0.6240234 -0.7548828
vt 0.6479492 -0.690918
vt 0.5791016 -0.6923828
vt 0.5288086 -0.6425781
vt 0.3564453 -0.6982422
vt 0.3564453 -0.6425781
vt 0.1870117 -0.6933594
vt 0.1870117 -0.6425781
f 383/383/383 384/384/384 385/385/385
f 384/384/384 386/386/386 385/385/385
f 385/385/385 386/386/386 387/387/387
f 386/386/386 388/388/388 387/387/387
f 387/387/387 388/388/388 389/389/389
f 388/388/388 390/390/390 389/389/389
f 389/389/389 390/390/390 391/391/391
v -0.8938596 -0.002244944 -2.120864
v -0.55914 -0.002185129 -2.120834
v -1.027298 -0.002023662 -1.73096
v -0.4296376 -0.002304455 -1.731108
v -0.7247722 -0.002230993 -1.631139
vn NaN 0 0
vn NaN 0 0
vn NaN 0 0
vn NaN 0 0
vn NaN 0 0
vt 0.2504883 -0.8984375
vt 0.1850586 -0.8984375
vt 0.2661133 -0.9726563
vt 0.1694336 -0.9726563
vt 0.2158203 -0.9951172
f 392/392/392 393/393/393 394/394/394
f 393/393/393 395/395/395 394/394/394
f 394/394/394 395/395/395 396/396/396
v -0.6416016 4.360437 -1.479187
v -0.6428223 3.85478 -2.291535
v -1.075975 3.67662 -1.599786
v -0.7245524 2.814548 -2.400034
v -1.009726 2.650754 -1.951285
v -0.9432079 1.735183 -2.447481
v -0.7245946 2.404167 -1.354354
v -0.7247643 1.825283 -2.041998
v -0.5103465 1.735117 -2.447489
v -0.724632 1.493534 -2.144684
v -0.6326779 0.3008768 -2.182905
v -0.724934 0.3009859 -2.047734
vn NaN 0 0
vn NaN 0 0
vn NaN 0 0
vn NaN 0 0
vn NaN 0 0
vn NaN 0 0
vn NaN 0 0
vn NaN 0 0
vn NaN 0 0
vn NaN 0 0
vn NaN 0 0
vn NaN 0 0
vt 0.8046875 -0.578125
vt 0.8613281 -0.6269531
vt 0.8037109 -0.6303711
vt 0.8623047 -0.7143555
vt 0.8061523 -0.7133789
vt 0.8110352 -0.7924805
vt 0.7543945 -0.7143555
vt 0.7597656 -0.7768555
vt 0.8110352 -0.7924805
vt 0.7646484 -0.8139648
vt 0.8100586 -0.8920898
vt 0.7744141 -0.8920898
f 397/397/397 398/398/398 399/399/399
f 398/398/398 400/400/400 399/399/399
f 399/399/399 400/400/400 401/401/401
f 400/400/400 402/402/402 401/401/401
f 401/401/401 402/402/402 403/403/403
f 402/402/402 404/404/404 403/403/403
f 403/403/403 404/404/404 405/405/405
f 404/404/404 406/406/406 405/405/405
f 405/405/405 406/406/406 407/407/407
f 406/406/406 408/408/408 407/407/407
v -0.6416016 4.360437 -1.479187
v -1.075975 3.67662 -1.599786
v -0.8081055 3.648015 -0.920049
v -1.009726 2.650754 -1.951285
v -0.7245946 2.404167 -1.354354
vn NaN 0 0
vn NaN 0 0
vn NaN 0 0
vn NaN 0 0
vn NaN 0 0
vt 0.8046875 -0.578125
vt 0.8037109 -0.6303711
vt 0.7495117 -0.6230469
vt 0.8061523 -0.7133789
vt 0.7543945 -0.7143555
f 409/409/409 410/410/410 411/411/411
f 410/410/410 412/412/412 411/411/411
f 411/411/411 412/412/412 413/413/413
v -0.9432079 1.735183 -2.447481
v -0.7245524 2.814548 -2.400034
v -0.7246847 1.922663 -2.85698
v -0.5103465 1.735117 -2.447489
v -0.6326779 0.3008768 -2.182905
vn NaN 0 0
vn NaN 0 0
vn NaN 0 0
vn NaN 0 0
vn NaN 0 0
vt 0.8110352 -0.7924805
vt 0.8623047 -0.7143555
vt 0.855957 -0.7905273
vt 0.8110352 -0.7924805
vt 0.8100586 -0.8920898
f 414/414/414 415/415/415 416/416/416
f 415/415/415 417/417/417 416/416/416
f 416/416/416 417/417/417 418/418/418
v -0.4296376 -0.002304455 -1.731108
v -0.7249109 0.2472504 -1.631086
v -0.7247722 -0.002230993 -1.631139
v -1.027193 0.2472332 -1.731003
v -1.027298 -0.002023662 -1.73096
v -0.8938596 -0.002244944 -2.120864
vn NaN 0 0
vn NaN 0 0
vn NaN 0 0
vn NaN 0 0
vn NaN 0 0
vn NaN 0 0
vt 0.02001953 -0.9755859
vt 0.07421875 -0.9648438
vt 0.07421875 -0.9951172
vt 0.1313477 -0.9453125
vt 0.1308594 -0.9755859
vt 0.1123047 -0.8745117
f 419/419/419 420/420/420 421/421/421
f 420/420/420 422/422/422 421/421/421
f 421/421/421 422/422/422 423/423/423
f 422/422/422 424/424/424 423/423/423
v -0.55914 -0.002185129 -2.120834
v -0.7247485 0.3010061 -2.3212
v -0.6326779 0.3008768 -2.182905
v -0.7246847 1.922663 -2.85698
vn NaN 0 0
vn NaN 0 0
vn NaN 0 0
vn NaN 0 0
vt 0.8012695 -0.9248047
vt 0.8466797 -0.8920898
vt 0.8100586 -0.8920898
vt 0.855957 -0.7905273
f 425/425/425 426/426/426 427/427/427
f 426/426/426 428/428/428 427/427/427
v -0.7247643 1.825283 -2.041998
v -0.9432079 1.735183 -2.447481
v -0.724632 1.493534 -2.144684
v -0.8279904 0.3009245 -2.182857
v -0.724934 0.3009859 -2.047734
vn NaN 0 0
vn NaN 0 0
vn NaN 0 0
vn NaN 0 0
vn NaN 0 0
vt 0.7597656 -0.7768555
vt 0.8110352 -0.7924805
vt 0.7646484 -0.8139648
vt 0.8100586 -0.8920898
vt 0.7744141 -0.8920898
f 429/429/429 430/430/430 431/431/431
f 430/430/430 432/432/432 431/431/431
f 431/431/431 432/432/432 433/433/433
v -0.7245946 2.404167 -1.354354
v -0.5103465 1.735117 -2.447489
v -0.4120702 2.65072 -1.951301
v -0.7245524 2.814548 -2.400034
vn NaN 0 0
vn NaN 0 0
vn NaN 0 0
vn NaN 0 0
vt 0.7543945 -0.7143555
vt 0.8110352 -0.7924805
vt 0.8061523 -0.7133789
vt 0.8623047 -0.7143555
f 434/434/434 435/435/435 436/436/436
f 435/435/435 437/437/437 436/436/436
v -0.6525879 3.692522 1.416258
v -0.598877 3.692281 0.4382755
v -0.3654882 3.136125 1.878002
v -0.4191895 3.318537 0.4383035
v 0 3.135467 0.438336
vn NaN 0 0
vn NaN 0 0
vn NaN 0 0
vn NaN 0 0
vn NaN 0 0
vt 0.2431641 -0.7749023
vt 0.3564453 -0.7749023
vt 0.1894531 -0.8183594
vt 0.3564453 -0.8208008
vt 0.3564453 -0.8828125
f 438/438/438 439/439/439 440/440/440
f 439/439/439 441/441/441 440/440/440
f 440/440/440 441/441/441 442/442/442
v -0.5556641 4.017045 2.658661
v -0.6057129 4.352483 1.90226
v -0.9738694 3.6925 1.902524
v -0.6525879 3.692522 1.416258
v -0.6534415 3.135899 1.326386
v -0.3654882 3.136125 1.878002
v -0.4509038 1.736311 1.816635
v -0.653401 3.136134 2.172772
v -0.6536726 1.82631 2.060616
v -0.859351 1.736286 1.816636
v -0.6536782 1.49443 2.026282
v -0.7842934 0.3022445 1.819675
v -0.6537132 0.3023983 1.965464
vn NaN 0 0
vn NaN 0 0
vn NaN 0 0
vn NaN 0 0
vn NaN 0 0
vn NaN 0 0
vn NaN 0 0
vn NaN 0 0
vn NaN 0 0
vn NaN 0 0
vn NaN 0 0
vn NaN 0 0
vn NaN 0 0
vt 0.875 -0.6083984
vt 0.9414063 -0.5830078
vt 0.9414063 -0.6333008
vt 0.9951172 -0.6333008
vt 0.9912109 -0.675293
vt 0.9433594 -0.675293
vt 0.9428711 -0.7822266
vt 0.8964844 -0.675293
vt 0.9052734 -0.7753906
vt 0.9428711 -0.7822266
vt 0.9091797 -0.8007813
vt 0.9428711 -0.8916016
vt 0.9155273 -0.8916016
f 443/443/443 444/444/444 445/445/445
f 444/444/444 446/446/446 445/445/445
f 445/445/445 446/446/446 447/447/447
f 446/446/446 448/448/448 447/447/447
f 447/447/447 448/448/448 449/449/449
f 448/448/448 450/450/450 449/449/449
f 449/449/449 450/450/450 451/451/451
f 450/450/450 452/452/452 451/451/451
f 451/451/451 452/452/452 453/453/453
f 452/452/452 454/454/454 453/453/453
f 453/453/453 454/454/454 455/455/455
v -0.8699608 0.0005926913 1.882489
v -0.4566308 0.0008214405 1.882441
v -0.9689688 0.0007772778 2.282019
v -0.3603261 0.0008449576 2.28197
v -0.6535752 0.0008411396 2.392398
vn NaN 0 0
vn NaN 0 0
vn NaN 0 0
vn NaN 0 0
vn NaN 0 0
vt 0.2504883 -0.8984375
vt 0.1850586 -0.8984375
vt 0.2661133 -0.9726563
vt 0.1694336 -0.9726563
vt 0.2158203 -0.9951172
f 456/456/456 457/457/457 458/458/458
f 457/457/457 459/459/459 458/458/458
f 458/458/458 459/459/459 460/460/460
v -0.3654882 3.136125 1.878002
v -0.5556641 4.017045 2.658661
v -0.653401 3.136134 2.172772
v -0.9738694 3.6925 1.902524
v -0.9653418 3.136047 1.878101
v -0.6534415 3.135899 1.326386
v -0.859351 1.736286 1.816636
v -0.6537858 1.736257 1.489503
v -0.7842934 0.3022445 1.819675
v -0.6536394 0.3022965 1.658818
v -0.8699608 0.0005926913 1.882489
v -0.4566308 0.0008214405 1.882441
vn NaN 0 0
vn NaN 0 0
vn NaN 0 0
vn NaN 0 0
vn NaN 0 0
vn NaN 0 0
vn NaN 0 0
vn NaN 0 0
vn NaN 0 0
vn NaN 0 0
vn NaN 0 0
vn NaN 0 0
vt 0.9433594 -0.675293
vt 0.875 -0.6083984
vt 0.8964844 -0.675293
vt 0.9414063 -0.6333008
vt 0.9433594 -0.675293
vt 0.9912109 -0.675293
vt 0.9428711 -0.7822266
vt 0.9829102 -0.7822266
vt 0.9428711 -0.8916016
vt 0.9731445 -0.8916016
vt 0.9379883 -0.9223633
vt 0.9379883 -0.9223633
f 461/461/461 462/462/462 463/463/463
f 462/462/462 464/464/464 463/463/463
f 463/463/463 464/464/464 465/465/465
f 464/464/464 466/466/466 465/465/465
f 465/465/465 466/466/466 467/467/467
f 466/466/466 468/468/468 467/467/467
f 467/467/467 468/468/468 469/469/469
f 468/468/468 470/470/470 469/469/469
f 469/469/469 470/470/470 471/471/471
f 470/470/470 472/472/472 471/471/471
v -0.6536726 1.82631 2.060616
v -0.6536782 1.49443 2.026282
v -0.4509038 1.736311 1.816635
v -0.5455238 0.3022189 1.819491
v -0.6537858 1.736257 1.489503
v -0.6536394 0.3022965 1.658818
vn NaN 0 0
vn NaN 0 0
vn NaN 0 0
vn NaN 0 0
vn NaN 0 0
vn NaN 0 0
vt 0.9052734 -0.7753906
vt 0.9091797 -0.8007813
vt 0.9428711 -0.7822266
vt 0.9428711 -0.8916016
vt 0.9829102 -0.7822266
vt 0.9731445 -0.8916016
f 473/473/473 474/474/474 475/475/475
f 474/474/474 476/476/476 475/475/475
f 475/475/475 476/476/476 477/477/477
f 476/476/476 478/478/478 477/477/477
v -0.3603261 0.0008449576 2.28197
v -0.6536213 0.2480643 2.39225
v -0.6535752 0.0008411396 2.392398
v -0.9690148 0.2480004 2.281871
v -0.9689688 0.0007772778 2.282019
v -0.8699608 0.0005926913 1.882489
vn NaN 0 0
vn NaN 0 0
vn NaN 0 0
vn NaN 0 0
vn NaN 0 0
vn NaN 0 0
vt 0.02001953 -0.9755859
vt 0.07421875 -0.9648438
vt 0.07421875 -0.9951172
vt 0.1313477 -0.9453125
vt 0.1308594 -0.9755859
vt 0.1123047 -0.8745117
f 479/479/479 480/480/480 481/481/481
f 480/480/480 482/482/482 481/481/481
f 481/481/481 482/482/482 483/483/483
f 482/482/482 484/484/484 483/483/483
v 0 3.960444 4.208348
v -0.2463379 4.028485 4.185954
v 0 4.523844 3.864298
v -0.8823242 4.485127 4.012371
v -1.02417 4.99227 3.410263
v -1.351318 4.572317 4.098456
v -1.074219 5.411056 3.259925
vn NaN 0 0
vn NaN 0 0
vn NaN 0 0
vn NaN 0 0
vn NaN 0 0
vn NaN 0 0
vn NaN 0 0
vt 0.9951172 -0.5180664
vt 0.9658203 -0.5126953
vt 0.9951172 -0.4433594
vt 0.8901367 -0.4614258
vt 0.8735352 -0.3896484
vt 0.8344727 -0.4130859
vt 0.8676758 -0.3154297
f 485/485/485 486/486/486 487/487/487
f 486/486/486 488/488/488 487/487/487
f 487/487/487 488/488/488 489/489/489
f 488/488/488 490/490/490 489/489/489
f 489/489/489 490/490/490 491/491/491
v -1.050049 5.621721 3.925051
v -0.8491211 6.166137 3.316369
v -0.8569336 5.793896 3.332207
v -0.2646484 5.946573 3.624722
vn NaN 0 0
vn NaN 0 0
vn NaN 0 0
vn NaN 0 0
vt 0.005371094 -0.5947266
vt 0.06445313 -0.5791016
vt 0.06347656 -0.6264648
vt 0.1166992 -0.5795898
f 492/492/492 493/493/493 494/494/494
f 493/493/493 495/495/495 494/494/494
v -0.3950195 5.77975 3.99562
v -0.2646484 5.946573 3.624722
v -0.6977539 6.760291 3.597449
v -0.8491211 6.166137 3.316369
v -0.9174805 6.162183 3.729225
v -1.050049 5.621721 3.925051
vn NaN 0 0
vn NaN 0 0
vn NaN 0 0
vn NaN 0 0
vn NaN 0 0
vn NaN 0 0
vt 0.08544922 -0.5737305
vt 0.1166992 -0.5795898
vt 0.06787109 -0.4765625
vt 0.06445313 -0.5791016
vt 0.02001953 -0.5424805
vt 0.005371094 -0.5947266
f 496/496/496 497/497/497 498/498/498
f 497/497/497 499/499/499 498/498/498
f 498/498/498 499/499/499 500/500/500
f 499/499/499 501/501/501 500/500/500
v -1.050049 5.621721 3.925051
v -0.3950195 5.77975 3.99562
v -0.9174805 6.162183 3.729225
v -0.6977539 6.760291 3.597449
vn NaN 0 0
vn NaN 0 0
vn NaN 0 0
vn NaN 0 0
vt 0.1171875 -0.6230469
vt 0.2036133 -0.6201172
vt 0.1386719 -0.5786133
vt 0.1728516 -0.5161133
f 502/502/502 503/503/503 504/504/504
f 503/503/503 505/505/505 504/504/504
v 0 4.351223 4.930527
v -0.3481445 4.448267 4.838828
v -0.3371582 4.196088 4.696792
v -0.6608887 4.450253 4.394654
vn NaN 0 0
vn NaN 0 0
vn NaN 0 0
vn NaN 0 0
vt 0.2338867 -0.4311523
vt 0.1835938 -0.4194336
vt 0.1728516 -0.4746094
vt 0.08398438 -0.4282227
f 506/506/506 507/507/507 508/508/508
f 507/507/507 509/509/509 508/508/508
v -0.3481445 4.448267 4.838828
v -0.640625 4.627111 4.689898
v -0.6608887 4.450253 4.394654
v -1.351318 4.572317 4.098456
vn NaN 0 0
vn NaN 0 0
vn NaN 0 0
vn NaN 0 0
vt 0.1835938 -0.4194336
vt 0.1416016 -0.3735352
vt 0.08398438 -0.4282227
vt 0.01074219 -0.3139648
f 510/510/510 511/511/511 512/512/512
f 511/511/511 513/513/513 512/512/512
v 0 3.982527 4.442057
v 0 4.989932 3.727718
v -0.2976074 4.106285 4.420081
v -0.730957 5.009687 3.850258
vn NaN 0 0
vn NaN 0 0
vn NaN 0 0
vn NaN 0 0
vt 0.9951172 -0.2368164
vt 0.9951172 -0.09619141
vt 0.9394531 -0.2226563
vt 0.8828125 -0.1069336
f 514/514/514 515/515/515 516/516/516
f 515/515/515 517/517/517 516/516/516
v -0.9432079 1.735183 -2.447481
v -0.7246847 1.922663 -2.85698
v -0.8279904 0.3009245 -2.182857
v -0.7247485 0.3010061 -2.3212
v -0.8938596 -0.002244944 -2.120864
v -0.55914 -0.002185129 -2.120834
vn NaN 0 0
vn NaN 0 0
vn NaN 0 0
vn NaN 0 0
vn NaN 0 0
vn NaN 0 0
vt 0.8110352 -0.7924805
vt 0.855957 -0.7905273
vt 0.8100586 -0.8920898
vt 0.8466797 -0.8920898
vt 0.8012695 -0.9248047
vt 0.8012695 -0.9248047
f 518/518/518 519/519/519 520/520/520
f 519/519/519 521/521/521 520/520/520
f 520/520/520 521/521/521 522/522/522
f 521/521/521 523/523/523 522/522/522
v 0 4.674471 -2.045919
v -0.1462402 4.37751 -3.890559
v -0.1525879 4.374686 -2.073517
v 0 4.109105 -2.333355
vn NaN 0 0
vn NaN 0 0
vn NaN 0 0
vn NaN 0 0
vt 0.3662109 -0.9238281
vt 0.512207 -0.9614258
vt 0.3588867 -0.9619141
vt 0.3808594 -0.9956055
f 524/524/524 525/525/525 526/526/526
f 525/525/525 527/527/527 526/526/526
v -0.5976563 4.506088 4.361291
v -0.5976563 4.397677 4.285475
v -0.3005371 4.324991 4.61966
v -0.2646484 4.16697 4.453113
v 0 4.25876 4.714397
v 0 4.087442 4.538658
vn NaN 0 0
vn NaN 0 0
vn NaN 0 0
vn NaN 0 0
vn NaN 0 0
vn NaN 0 0
vt 0.9624023 -0.005371094
vt 0.9624023 -0.07958984
vt 0.8789063 -0.005371094
vt 0.8789063 -0.07958984
vt 0.7939453 -0.005371094
vt 0.7939453 -0.07958984
f 528/528/528 529/529/529 530/530/530
f 529/529/529 531/531/531 530/530/530
f 530/530/530 531/531/531 532/532/532
f 531/531/531 533/533/533 532/532/532
v -0.5976563 4.503712 4.353519
v -0.5976563 4.470906 4.267396
v -0.3005371 4.263554 4.476174
v -0.3005371 4.199183 4.303112
v 0 4.14193 4.534315
v 0 4.071829 4.345903
vn NaN 0 0
vn NaN 0 0
vn NaN 0 0
vn NaN 0 0
vn NaN 0 0
vn NaN 0 0
vt 0.9624023 -0.08007813
vt 0.9624023 -0.005859375
vt 0.8789063 -0.08007813
vt 0.8789063 -0.005859375
vt 0.7939453 -0.08007813
vt 0.7939453 -0.005859375
f 534/534/534 535/535/535 536/536/536
f 535/535/535 537/537/537 536/536/536
f 536/536/536 537/537/537 538/538/538
f 537/537/537 539/539/539 538/538/538
v -0.8081055 3.648015 -0.920049
v -0.7245946 2.404167 -1.354354
v -0.342041 3.085433 -1.500802
v -0.4120702 2.65072 -1.951301
v -0.6428223 3.85478 -2.291535
v -0.7245524 2.814548 -2.400034
vn NaN 0 0
vn NaN 0 0
vn NaN 0 0
vn NaN 0 0
vn NaN 0 0
vn NaN 0 0
vt 0.7495117 -0.6230469
vt 0.7543945 -0.7143555
vt 0.8066406 -0.6728516
vt 0.8061523 -0.7133789
vt 0.8613281 -0.6269531
vt 0.8623047 -0.7143555
f 540/540/540 541/541/541 542/542/542
f 541/541/541 543/543/543 542/542/542
f 542/542/542 543/543/543 544/544/544
f 543/543/543 545/545/545 544/544/544
v -0.55914 -0.002185129 -2.120834
v -0.6326779 0.3008768 -2.182905
v -0.4296376 -0.002304455 -1.731108
v -0.4297762 0.247177 -1.731055
v -0.7249109 0.2472504 -1.631086
v -0.6326779 0.3008768 -2.182905
v -0.724934 0.3009859 -2.047734
vn NaN 0 0
vn NaN 0 0
vn NaN 0 0
vn NaN 0 0
vn NaN 0 0
vn NaN 0 0
vn NaN 0 0
vt 0.03417969 -0.8745117
vt 0.03955078 -0.8637695
vt 0.02001953 -0.9755859
vt 0.015625 -0.9453125
vt 0.07421875 -0.9648438
vt 0.03955078 -0.8637695
vt 0.07421875 -0.8891602
f 546/546/546 547/547/547 548/548/548
f 547/547/547 549/549/549 548/548/548
f 548/548/548 549/549/549 550/550/550
f 549/549/549 551/551/551 550/550/550
f 550/550/550 551/551/551 552/552/552
v -0.8938596 -0.002244944 -2.120864
v -1.027193 0.2472332 -1.731003
v -0.8279904 0.3009245 -2.182857
v -0.7249109 0.2472504 -1.631086
v -0.724934 0.3009859 -2.047734
vn NaN 0 0
vn NaN 0 0
vn NaN 0 0
vn NaN 0 0
vn NaN 0 0
vt 0.1123047 -0.8745117
vt 0.1313477 -0.9453125
vt 0.1069336 -0.8637695
vt 0.07421875 -0.9648438
vt 0.07421875 -0.8891602
f 553/553/553 554/554/554 555/555/555
f 554/554/554 556/556/556 555/555/555
f 555/555/555 556/556/556 557/557/557
v -0.6537132 0.3023983 1.965464
v -0.7842934 0.3022445 1.819675
v -0.6536213 0.2480643 2.39225
v -0.9690148 0.2480004 2.281871
vn NaN 0 0
vn NaN 0 0
vn NaN 0 0
vn NaN 0 0
vt 0.07421875 -0.8891602
vt 0.1069336 -0.8637695
vt 0.07421875 -0.9648438
vt 0.1313477 -0.9453125
f 558/558/558 559/559/559 560/560/560
f 559/559/559 561/561/561 560/560/560
v -0.4566308 0.0008214405 1.882441
v -0.5455238 0.3022189 1.819491
v -0.3603261 0.0008449576 2.28197
v -0.3603722 0.2480681 2.281821
v -0.6536213 0.2480643 2.39225
v -0.5455238 0.3022189 1.819491
v -0.6537132 0.3023983 1.965464
vn NaN 0 0
vn NaN 0 0
vn NaN 0 0
vn NaN 0 0
vn NaN 0 0
vn NaN 0 0
vn NaN 0 0
vt 0.03417969 -0.8745117
vt 0.03955078 -0.8637695
vt 0.02001953 -0.9755859
vt 0.015625 -0.9453125
vt 0.07421875 -0.9648438
vt 0.03955078 -0.8637695
vt 0.07421875 -0.8891602
f 562/562/562 563/563/563 564/564/564
f 563/563/563 565/565/565 564/564/564
f 564/564/564 565/565/565 566/566/566
f 565/565/565 567/567/567 566/566/566
f 566/566/566 567/567/567 568/568/568
v 0 5.599612 3.068831
v 0 5.105904 3.239961
v -1.074219 5.411056 3.259925
v -1.02417 4.99227 3.410263
vn NaN 0 0
vn NaN 0 0
vn NaN 0 0
vn NaN 0 0
vt 0.9951172 -0.2817383
vt 0.9951172 -0.3359375
vt 0.8676758 -0.3154297
vt 0.8735352 -0.3896484
f 569/569/569 570/570/570 571/571/571
f 570/570/570 572/572/572 571/571/571
v -0.2980957 4.442357 4.784562
v -0.2749023 4.933912 4.698781
v -2.186523 4.407485 4.697572
v -2.148193 5.078684 4.580402
vn NaN 0 0
vn NaN 0 0
vn NaN 0 0
vn NaN 0 0
vt 0.4882813 -0.1098633
vt 0.4882813 -0.02099609
vt 0.7729492 -0.1191406
vt 0.7729492 -0.008789063
f 573/573/573 574/574/574 575/575/575
f 574/574/574 576/576/576 575/575/575
v 0.1525879 4.374686 -2.073517
v 0 4.674471 -2.045919
v 0 4.680686 -1.371549
v -0.1525879 4.374686 -2.073517
vn NaN 0 0
vn NaN 0 0
vn NaN 0 0
vn NaN 0 0
vt 0.6479492 -0.690918
vt 0.6577148 -0.6425781
vt 0.5288086 -0.6425781
vt 0.6479492 -0.690918
f 577/577/577 578/578/578 579/579/579
f 578/578/578 580/580/580 579/579/579
v 1.026684 -0.002238806 -1.73086
v 0.7243179 -0.002195389 -1.631121
v 0.429271 -0.002263023 -1.731069
v 0.1271973 4.376045 -9.380018
v 0 4.376289 -9.570245
v 0 4.532084 -9.380018
v 0.96886 0.001095745 2.282067
v 0.6536012 0.0009650027 2.392522
v 0.3602167 0.0009283272 2.281957
v 0.9738617 3.692508 1.902422
v 0.9651072 3.136128 1.877822
v 0.6533184 3.135804 1.326392
v 0.5556641 4.017045 2.658661
v 0.3586426 4.295295 2.786113
v 0 4.096371 2.880419
v 0 2.965751 1.98894
v 0.3654978 3.136024 1.878001
v 0 3.358564 2.751557
v 0.6534814 3.136047 2.172477
v 0.6535367 1.826575 2.060434
v 0.8592824 1.736642 1.816713
v 0.411567 2.650798 -1.95128
v 0.342041 3.085433 -1.500802
v 0.6428223 3.85478 -2.291535
v -0.8081055 3.648015 -0.920049
v -0.4677734 4.073895 0.4380664
v -0.6416016 4.360437 -1.479187
v -0.5455238 0.3022189 1.819491
v -0.4566308 0.0008214405 1.882441
v -0.6536394 0.3022965 1.658818
v -0.3950195 5.77975 3.99562
v 0 5.82425 4.011101
v -0.2646484 5.946573 3.624722
v 0 4.989932 3.727718
v 0 5.130775 3.994707
v -0.730957 5.009687 3.850258
v -0.3586426 4.295295 2.786113
v 0 4.603438 2.774733
v 0 4.510798 2.542658
v -0.5455238 0.3022189 1.819491
v -0.6536782 1.49443 2.026282
v -0.6537132 0.3023983 1.965464
v -0.653401 3.136134 2.172772
v -0.9653418 3.136047 1.878101
v -0.859351 1.736286 1.816636
v 0 4.109105 -2.333355
v -0.1462402 4.37751 -3.890559
v 0 4.117933 -3.890559
v -0.8699608 0.0005926913 1.882489
v -0.9690148 0.2480004 2.281871
v -0.7842934 0.3022445 1.819675
v -0.6534415 3.135899 1.326386
v -0.4509038 1.736311 1.816635
v -0.6537858 1.736257 1.489503
vn NaN 0 0
vn NaN 0 0
vn NaN 0 0
vn NaN 0 0
vn NaN 0 0
vn NaN 0 0
vn NaN 0 0
vn NaN 0 0
vn NaN 0 0
vn NaN 0 0
vn NaN 0 0
vn NaN 0 0
vn NaN 0 0
vn NaN 0 0
vn NaN 0 0
vn NaN 0 0
vn NaN 0 0
vn NaN 0 0
vn NaN 0 0
vn NaN 0 0
vn NaN 0 0
vn NaN 0 0
vn NaN 0 0
vn NaN 0 0
vn NaN 0 0
vn NaN 0 0
vn NaN 0 0
vn NaN 0 0
vn NaN 0 0
vn NaN 0 0
vn NaN 0 0
vn NaN 0 0
vn NaN 0 0
vn NaN 0 0
vn NaN 0 0
vn NaN 0 0
vn NaN 0 0
vn NaN 0 0
vn NaN 0 0
vn NaN 0 0
vn NaN 0 0
vn NaN 0 0
vn NaN 0 0
vn NaN 0 0
vn NaN 0 0
vn NaN 0 0
vn NaN 0 0
vn NaN 0 0
vn NaN 0 0
vn NaN 0 0
vn NaN 0 0
vn NaN 0 0
vn NaN 0 0
vn NaN 0 0
vt 0.2661133 -0.9726563
vt 0.2158203 -0.9951172
vt 0.1694336 -0.9726563
vt 0.9741211 -0.9614258
vt 0.9902344 -0.9614258
vt 0.9741211 -0.9418945
vt 0.2661133 -0.9726563
vt 0.2158203 -0.9951172
vt 0.1694336 -0.9726563
vt 0.9414063 -0.6333008
vt 0.9433594 -0.675293
vt 0.9912109 -0.675293
vt 0.09912109 -0.7348633
vt 0.06835938 -0.6826172
vt 0.04248047 -0.7490234
vt 0.1767578 -0.8828125
vt 0.1894531 -0.8183594
vt 0.06884766 -0.8251953
vt 0.8964844 -0.675293
vt 0.9052734 -0.7753906
vt 0.9428711 -0.7822266
vt 0.8061523 -0.7133789
vt 0.8066406 -0.6728516
vt 0.8613281 -0.6269531
vt 0.5141602 -0.7802734
vt 0.3564453 -0.6982422
vt 0.5791016 -0.6923828
vt 0.9428711 -0.8916016
vt 0.9379883 -0.9223633
vt 0.9731445 -0.8916016
vt 0.1772461 -0.1738281
vt 0.2338867 -0.1713867
vt 0.1958008 -0.1088867
vt 0.9951172 -0.09619141
vt 0.9951172 -0.09619141
vt 0.8828125 -0.1069336
vt 0.5146484 -0.5522461
vt 0.5527344 -0.6044922
vt 0.5258789 -0.6157227
vt 0.9428711 -0.8916016
vt 0.9091797 -0.8007813
vt 0.9155273 -0.8916016
vt 0.8964844 -0.675293
vt 0.9433594 -0.675293
vt 0.9428711 -0.7822266
vt 0.3808594 -0.9956055
vt 0.512207 -0.9614258
vt 0.512207 -0.9941406
vt 0.1123047 -0.8745117
vt 0.1313477 -0.9453125
vt 0.1069336 -0.8637695
vt 0.9912109 -0.675293
vt 0.9428711 -0.7822266
vt 0.9829102 -0.7822266
f 581/581/581 582/582/582 583/583/583
f 584/584/584 585/585/585 586/586/586
f 587/587/587 588/588/588 589/589/589
f 590/590/590 591/591/591 592/592/592
f 593/593/593 594/594/594 595/595/595
f 596/596/596 597/597/597 598/598/598
f 599/599/599 600/600/600 601/601/601
f 602/602/602 603/603/603 604/604/604
f 605/605/605 606/606/606 607/607/607
f 608/608/608 609/609/609 610/610/610
f 611/611/611 612/612/612 613/613/613
f 614/614/614 615/615/615 616/616/616
f 617/617/617 618/618/618 619/619/619
f 620/620/620 621/621/621 622/622/622
f 623/623/623 624/624/624 625/625/625
f 626/626/626 627/627/627 628/628/628
f 629/629/629 630/630/630 631/631/631
f 632/632/632 633/633/633 634/634/634
